<svg xmlns="http://www.w3.org/2000/svg" viewBox="0 0 24 24" fill="none" stroke="#ffffff" stroke-width="1.8" stroke-linecap="round" stroke-linejoin="round">
  <path d="M12 2a10 10 0 0 0-3.16 19.5c.5.1.68-.22.68-.48v-1.7c-2.77.6-3.36-1.34-3.36-1.34-.45-1.16-1.1-1.47-1.1-1.47-.9-.62.07-.61.07-.61 1 .07 1.53 1.04 1.53 1.04.9 1.53 2.36 1.08 2.93.83.09-.65.35-1.08.64-1.33-2.22-.25-4.56-1.11-4.56-4.95 0-1.09.39-1.98 1.03-2.68-.1-.25-.45-1.26.1-2.63 0 0 .84-.27 2.75 1.03A9.55 9.55 0 0 1 12 6.8a9.55 9.55 0 0 1 2.5.34c1.9-1.3 2.74-1.03 2.74-1.03.55 1.37.2 2.38.1 2.63.64.7 1.03 1.6 1.03 2.68 0 3.86-2.34 4.7-4.57 4.95.36.31.69.92.69 1.85v2.74c0 .26.18.58.69.48A10 10 0 0 0 12 2Z" />
</svg>
